<?xml version="1.0" standalone="no"?>
<!DOCTYPE svg PUBLIC "-//W3C//DTD SVG 20010904//EN"
 "http://www.w3.org/TR/2001/REC-SVG-20010904/DTD/svg10.dtd">
<svg version="1.0" xmlns="http://www.w3.org/2000/svg"
 width="632.000000pt" height="632.000000pt" viewBox="0 0 632.000000 632.000000"
 preserveAspectRatio="xMidYMid meet">
<metadata>
Created by potrace 1.14, written by Peter Selinger 2001-2017
</metadata>
<g transform="translate(0.000000,632.000000) scale(0.100000,-0.100000)"
fill="#000000" stroke="none">
<path d="M3277 6280 c-51 -59 -177 -288 -204 -370 -38 -113 -43 -176 -23 -263
22 -93 92 -202 160 -250 29 -20 44 -7 55 48 5 22 9 45 11 52 31 155 43 193 59
193 12 0 27 -33 90 -202 9 -26 26 -55 36 -64 16 -14 21 -15 35 -3 38 31 93
134 112 209 10 42 7 170 -6 215 -25 86 -108 231 -204 354 -91 115 -91 115
-121 81z"/>
<path d="M4197 5804 c-2 -2 -43 -15 -93 -29 -176 -50 -290 -129 -335 -232 -27
-60 -39 -193 -18 -193 8 0 57 27 109 60 70 45 96 57 98 46 2 -9 -15 -54 -37
-102 -23 -48 -41 -91 -41 -95 0 -5 23 -9 51 -9 102 0 227 88 273 191 33 75 68
227 70 302 l1 62 -37 1 c-21 1 -39 0 -41 -2z"/>
<path d="M1429 5689 c-11 -22 -8 -228 5 -289 3 -14 9 -38 12 -55 26 -121 169
-255 273 -255 l43 0 -7 38 c-4 20 -10 42 -15 47 -15 19 -50 127 -45 136 6 8
43 -5 55 -20 3 -3 23 -19 45 -36 22 -16 42 -32 45 -35 3 -3 18 -11 33 -18 25
-11 28 -10 36 10 8 22 7 80 -2 130 -26 133 -157 245 -383 329 -33 12 -64 26
-71 31 -8 6 -15 2 -24 -13z"/>
<path d="M2207 5686 c-14 -14 -16 -183 -3 -278 18 -137 87 -238 201 -293 48
-23 119 -38 129 -28 3 3 -7 35 -21 72 -40 103 -53 150 -43 156 5 3 37 -16 72
-42 99 -75 119 -86 130 -75 25 25 3 164 -39 245 -32 64 -136 142 -261 196
-126 55 -150 62 -165 47z"/>
<path d="M2882 5323 c-11 -27 -26 -68 -33 -93 -7 -25 -14 -49 -15 -55 -53
-184 -34 -313 64 -417 39 -41 108 -86 117 -76 2 1 5 54 8 116 3 100 9 134 21
121 2 -2 27 -40 57 -84 62 -92 68 -98 88 -82 30 25 42 78 40 175 -2 127 -16
157 -124 270 -56 59 -186 172 -197 172 -3 0 -15 -21 -26 -47z"/>
<path d="M4447 5234 c-4 -4 -17 -8 -30 -10 -12 -1 -22 -3 -22 -4 0 -1 -11 -3
-25 -6 -14 -2 -60 -16 -103 -30 -173 -57 -271 -137 -308 -254 -18 -56 -17
-160 1 -160 5 0 47 24 92 54 76 49 128 75 128 63 0 -3 -20 -46 -45 -96 -25
-50 -45 -98 -45 -106 0 -14 35 -22 65 -15 6 1 18 3 27 5 38 8 106 44 142 76
89 77 129 185 160 427 4 25 -25 68 -37 56z"/>
<path d="M5230 5205 c-218 -60 -326 -134 -371 -255 -22 -59 -31 -171 -14 -177
6 -2 49 21 95 50 77 49 130 75 130 64 0 -2 -20 -47 -45 -100 -25 -53 -45 -101
-45 -106 0 -15 51 -17 99 -4 116 34 199 117 245 247 18 50 46 206 46 253 0 51
-1 53 -27 52 -16 0 -66 -11 -113 -24z"/>
<path d="M657 5184 c-1 -1 -22 -5 -47 -9 -54 -7 -163 -33 -207 -48 -55 -19
-46 -35 105 -192 145 -150 202 -180 341 -177 60 1 161 44 161 68 0 8 -4 14
-10 14 -11 0 -147 86 -167 105 -22 23 3 29 109 26 54 -1 103 1 107 4 21 12
-14 72 -66 115 -63 52 -107 77 -154 86 -34 6 -167 13 -172 8z"/>
<path d="M3567 5053 c-162 -164 -235 -264 -275 -372 -33 -91 -33 -208 -1 -286
7 -17 13 -32 14 -35 4 -19 37 -69 58 -88 l25 -24 15 24 c37 60 57 100 57 114
0 8 5 14 10 14 6 0 10 6 10 13 0 20 37 92 54 106 13 11 17 9 25 -12 6 -14 12
-47 15 -74 15 -146 25 -196 39 -205 14 -9 45 10 91 57 111 115 156 242 134
385 -21 137 -148 460 -181 460 -7 0 -48 -35 -90 -77z"/>
<path d="M2248 4926 c-6 -17 -1 -213 5 -271 27 -227 55 -299 152 -401 71 -74
160 -119 248 -127 54 -4 57 -3 57 18 0 13 -20 72 -45 131 -41 99 -55 154 -39
154 12 0 50 -25 146 -96 56 -41 104 -74 108 -74 21 0 29 32 25 110 -2 47 -6
95 -9 108 -22 97 -124 224 -226 281 -128 73 -416 187 -422 167z"/>
<path d="M1478 4874 c-2 -1 -28 -5 -58 -8 -57 -5 -229 -51 -243 -65 -9 -9 90
-145 154 -211 58 -60 131 -110 186 -126 84 -25 244 -8 291 31 7 6 -12 35 -23
35 -6 0 -20 9 -30 20 -10 11 -22 20 -27 20 -13 0 -108 71 -108 81 0 10 20 12
95 9 55 -2 88 -3 122 -1 20 1 21 4 12 31 -32 91 -171 177 -296 183 -40 2 -74
3 -75 1z"/>
<path d="M4327 4524 c-1 -1 -27 -5 -57 -8 -175 -20 -321 -117 -387 -255 -28
-61 -41 -125 -25 -135 5 -3 28 1 51 9 23 8 41 12 41 9 0 -2 16 2 35 10 19 8
35 13 35 11 0 -3 12 0 28 6 15 6 36 12 47 14 11 2 29 6 41 8 11 3 27 2 34 -3
10 -6 -2 -24 -46 -71 -131 -138 -144 -154 -144 -174 0 -8 6 -15 13 -16 6 0 23
-3 37 -6 54 -11 184 -4 237 13 116 37 229 142 317 294 54 93 137 262 131 268
-8 9 -32 12 -115 18 -71 5 -270 11 -273 8z"/>
<path d="M5019 4445 c-2 -2 -18 -5 -36 -8 -74 -12 -159 -65 -218 -138 -32 -38
-58 -104 -50 -128 8 -26 27 -26 101 0 68 24 134 35 134 22 0 -5 -29 -41 -65
-79 -86 -91 -92 -102 -62 -113 13 -5 54 -9 91 -9 102 1 196 42 264 117 34 38
82 108 82 120 0 6 5 11 10 11 6 0 10 5 10 10 0 6 11 27 24 48 12 20 23 39 24
42 0 3 5 18 11 33 14 37 14 54 -1 63 -12 7 -312 16 -319 9z"/>
<path d="M780 4320 c-47 -9 -181 -76 -271 -135 -79 -53 -90 -62 -83 -79 5 -13
195 -126 211 -126 6 0 16 -7 23 -15 11 -13 32 -21 110 -42 40 -11 149 -8 190
6 78 25 160 83 160 112 0 10 -34 26 -73 33 -12 2 -42 9 -67 16 -25 6 -52 12
-60 14 -38 8 -10 32 65 56 44 15 87 29 95 32 8 4 21 8 29 10 33 9 -91 100
-155 113 -47 10 -136 12 -174 5z"/>
<path d="M1880 4164 c-64 -12 -162 -39 -240 -67 -95 -34 -392 -180 -410 -201
-9 -11 -5 -20 17 -43 73 -73 329 -264 423 -315 177 -96 353 -118 513 -64 120
40 227 116 227 160 0 4 -150 63 -307 121 -40 15 -73 32 -73 39 0 17 37 33 107
45 32 6 69 14 83 17 14 3 39 7 56 9 87 13 149 32 152 48 5 22 -120 146 -173
172 -22 11 -43 25 -47 30 -4 6 -8 7 -8 3 0 -4 -12 -3 -27 3 -97 37 -222 55
-293 43z"/>
<path d="M5573 4120 c-54 -22 -116 -81 -107 -103 5 -14 19 -17 98 -20 27 -1
51 -7 53 -13 2 -5 -26 -25 -62 -44 -36 -19 -65 -38 -65 -41 0 -23 106 -57 160
-52 48 4 99 22 137 47 42 29 172 139 172 147 1 4 -20 17 -46 29 -139 66 -257
83 -340 50z"/>
<path d="M3215 4043 c-11 -15 -29 -38 -41 -52 -21 -26 -146 -204 -174 -246 -8
-13 -37 -59 -64 -102 -27 -43 -59 -94 -71 -113 -64 -99 -235 -425 -235 -447 0
-4 -9 -25 -19 -47 -17 -36 -54 -133 -57 -146 0 -3 -4 -12 -7 -20 -5 -13 -39
-127 -42 -140 0 -3 -7 -28 -14 -56 -7 -29 -14 -60 -16 -70 -2 -11 -4 -19 -5
-19 -2 0 -6 -24 -13 -75 -3 -19 -8 -51 -12 -71 -13 -81 -21 -387 -11 -464 2
-16 7 -59 11 -94 6 -53 18 -117 59 -316 2 -11 16 -60 31 -110 14 -49 28 -97
30 -105 18 -70 115 -329 155 -415 44 -94 70 -154 70 -160 0 -3 -55 -5 -122 -3
-121 4 -124 5 -186 41 -35 20 -69 37 -77 37 -8 0 -16 4 -19 9 -7 11 -99 25
-146 22 -104 -7 -244 -60 -370 -139 -78 -50 -294 -205 -298 -214 -2 -4 -10 -8
-18 -8 -8 0 -14 -4 -14 -9 0 -6 -13 -17 -29 -27 -49 -29 -65 -69 -64 -157 0
-42 6 -83 12 -91 14 -17 205 -69 371 -102 14 -2 48 -9 75 -14 28 -6 61 -12 75
-15 14 -3 39 -8 55 -12 17 -4 35 -7 40 -8 9 -1 102 -17 115 -20 3 -1 30 -5 60
-9 30 -5 64 -10 75 -12 132 -25 340 -38 640 -38 237 0 494 9 556 19 13 2 57 6
97 10 142 11 284 37 482 87 85 22 162 41 170 43 20 4 188 49 265 70 98 26 98
30 3 127 -133 136 -285 223 -424 243 -21 3 -46 8 -54 11 -24 8 -129 17 -345
28 -137 7 -234 20 -315 41 -14 3 -29 7 -35 9 -63 15 -224 144 -260 207 -51 88
-88 172 -112 254 -17 56 -74 277 -78 300 -5 33 -8 47 -24 115 -5 25 -13 60
-16 79 -3 19 -8 38 -10 42 -3 4 -7 22 -9 40 -3 19 -10 56 -16 83 -6 27 -9 51
-6 53 3 3 0 17 -6 32 -5 14 -10 59 -10 100 1 58 6 84 27 127 34 68 83 108 215
174 165 81 245 123 250 129 3 3 21 14 40 24 80 40 278 202 364 296 17 19 42
46 54 60 65 72 212 281 198 281 -3 0 -101 -62 -216 -137 -116 -76 -218 -142
-228 -148 -9 -5 -19 -12 -22 -15 -9 -9 -69 -50 -74 -50 -3 0 -205 -125 -301
-188 -11 -6 -31 -18 -45 -24 -14 -7 -27 -15 -30 -18 -4 -5 -41 -23 -182 -92
-29 -14 -67 -9 -77 10 -9 18 -7 153 5 204 3 16 7 39 8 51 3 21 14 89 22 130 2
10 6 27 9 37 3 10 7 27 9 37 9 43 39 151 70 251 37 116 48 149 168 477 44 121
90 249 103 285 13 36 31 86 41 113 20 56 16 67 -11 30z"/>
<path d="M3628 3855 c-2 -3 -20 -7 -39 -9 -132 -17 -255 -118 -290 -238 -7
-27 -6 -35 7 -45 10 -7 21 -10 26 -7 10 7 132 43 167 50 14 3 28 7 33 10 23
14 3 -28 -29 -62 -72 -76 -103 -115 -103 -129 0 -30 134 -37 205 -11 89 34
154 91 226 201 69 105 123 215 112 226 -9 9 -306 22 -315 14z"/>
<path d="M4498 3695 c-1 -2 -23 -6 -48 -9 -64 -7 -169 -43 -212 -71 -21 -14
-40 -25 -43 -25 -26 0 -161 -144 -198 -212 -33 -59 -40 -79 -52 -153 -9 -58
15 -64 118 -32 26 8 47 13 47 10 0 -3 7 0 15 7 8 7 15 10 15 6 0 -3 12 -1 28
5 15 6 34 12 42 14 8 2 42 11 75 19 69 19 95 20 95 6 0 -14 -9 -25 -111 -133
-179 -191 -181 -195 -126 -218 49 -21 278 -18 342 5 161 57 283 156 387 316
60 91 208 374 208 397 0 7 5 13 10 13 13 0 13 27 0 35 -5 3 -24 8 -42 11 -39
6 -544 14 -550 9z"/>
<path d="M5303 3503 c-23 -8 -53 -26 -68 -40 -22 -23 -24 -28 -10 -35 8 -5 23
-11 33 -13 9 -1 36 -8 60 -14 34 -10 40 -14 30 -25 -7 -7 -18 -13 -24 -13 -27
0 -105 -36 -102 -47 7 -23 110 -66 157 -66 81 1 280 101 281 141 0 14 -109 80
-165 100 -74 26 -137 30 -192 12z"/>
<path d="M1200 3502 c-90 -10 -203 -58 -312 -133 -32 -21 -62 -39 -67 -39 -5
0 -11 -7 -15 -15 -3 -8 -13 -15 -21 -15 -25 0 -12 -13 62 -62 76 -51 163 -96
238 -125 49 -19 188 -25 241 -11 28 8 95 48 135 81 32 26 33 28 16 41 -10 8
-61 24 -115 36 -53 12 -99 24 -101 26 -6 5 26 34 38 34 16 0 165 51 174 60 13
11 -41 57 -99 86 -52 25 -129 42 -174 36z"/>
<path d="M2090 3292 c-43 -5 -148 -32 -187 -48 -104 -41 -269 -122 -282 -138
-9 -11 -1 -23 41 -57 29 -24 55 -46 58 -50 11 -14 198 -138 235 -156 58 -29
90 -35 190 -34 105 1 161 17 228 67 45 33 48 37 33 53 -8 9 -65 35 -126 56
-127 46 -137 62 -50 82 30 6 70 14 90 17 71 10 99 19 104 31 5 13 -61 95 -76
95 -5 0 -16 6 -24 14 -7 8 -49 25 -91 39 -94 30 -111 34 -143 29z"/>
</g>
</svg>
